<?xml version="1.0" encoding="iso-8859-1"?>
<!-- Generator: Adobe Illustrator 19.0.0, SVG Export Plug-In . SVG Version: 6.00 Build 0)  -->
<svg version="1.1" id="Layer_1" xmlns="http://www.w3.org/2000/svg" xmlns:xlink="http://www.w3.org/1999/xlink" x="0px" y="0px"
	 viewBox="0 0 324.142 324.142" style="enable-background:new 0 0 324.142 324.142;" xml:space="preserve">
<g>
	<g>
		<g>
			<path d="M162.07,0C73.163,0,0.83,72.333,0.83,161.241c0,37.076,12.788,73.004,36.1,101.676
				c-6.651,16.758-17.789,31.247-32.401,42.089c-2.238,1.66-3.37,4.424-2.941,7.178c0.429,2.753,2.349,5.042,4.986,5.942
				c11.683,3.992,23.856,6.016,36.182,6.016c19.572,0,38.698-5.093,55.569-14.763c20.158,8.696,41.584,13.103,63.747,13.103
				c88.909,0,161.241-72.333,161.241-161.242C323.313,72.333,250.979,0,162.07,0z M162.07,307.483
				c-21.32,0-41.881-4.492-61.111-13.35c-2.292-1.055-4.959-0.889-7.101,0.444c-15.314,9.529-32.985,14.565-51.105,14.565
				c-6.053,0-12.065-0.564-17.981-1.683c12.52-12.121,22.013-26.951,27.787-43.547c0.879-2.526,0.346-5.328-1.398-7.355
				C28.377,230.07,15.83,196.22,15.83,161.241C15.83,80.604,81.434,15,162.07,15s146.241,65.604,146.241,146.241
				C308.313,241.879,242.708,307.483,162.07,307.483z"/>
			<path d="M253.389,102.125c0.572-1.293,1.08-2.619,1.521-3.974c0.963-2.96-0.002-6.209-2.427-8.162
				c-2.425-1.954-5.804-2.204-8.492-0.633c-5.124,2.998-10.619,5.252-16.38,6.723c-7.721-6.577-17.7-10.282-27.988-10.282
				c-23.436,0-42.529,18.709-42.768,41.793c-22.825-3.3-43.8-14.938-58.529-32.722c-1.558-1.88-3.944-2.883-6.365-2.693
				c-2.434,0.192-4.622,1.556-5.865,3.657c-3.812,6.439-5.826,13.797-5.826,21.278c0,6.252,1.391,12.307,3.974,17.799
				c-0.197,0.094-0.391,0.198-0.581,0.311c-2.277,1.351-3.673,3.803-3.673,6.45v0.437c0,11.941,5.121,22.946,13.467,30.728
				c-1.136,1.855-1.422,4.136-0.734,6.244c3.501,10.73,11.073,19.349,20.719,24.391c-7.661,3.141-15.915,4.764-24.452,4.764
				c-2.533,0-5.072-0.146-7.548-0.436c-3.48-0.403-6.776,1.649-7.942,4.953c-1.166,3.303,0.109,6.973,3.072,8.841
				c17.386,10.961,37.47,16.754,58.082,16.754c40.536,0,65.935-18.863,80.104-34.687c17.643-19.703,27.761-45.804,27.761-71.609
				c0-0.278,0-0.55-0.002-0.814c6.27-4.956,11.713-10.811,16.217-17.45c1.875-2.764,1.696-6.436-0.438-9.004
				C257.03,103.259,255.259,102.342,253.389,102.125z M227.518,132.05c0,22.162-8.724,44.615-23.936,61.603
				c-12.129,13.546-33.933,29.693-68.929,29.693c-8.136,0-16.176-1.046-23.941-3.087c9.592-2.706,18.602-7.229,26.673-13.449
				c2.523-1.944,3.543-5.27,2.543-8.294s-3.8-5.087-6.985-5.145c-7.847-0.143-15.056-3.501-20.096-8.958
				c1.648-0.243,3.28-0.58,4.887-1.01c3.369-0.903,5.67-4.008,5.555-7.493c-0.116-3.485-2.619-6.431-6.04-7.109
				c-9.1-1.801-16.438-7.918-19.973-15.899c1.962,0.339,3.948,0.543,5.94,0.61c3.373,0.108,6.378-2.023,7.396-5.224
				c1.018-3.201-0.217-6.688-3.021-8.536c-7.717-5.084-12.324-13.548-12.324-22.642c0-1.125,0.071-2.246,0.211-3.355
				c18.659,17.722,43.334,28.378,69.408,29.667c2.343,0.117,4.62-0.878,6.128-2.685s2.081-4.217,1.545-6.51
				c-0.471-2.02-0.71-4.105-0.71-6.199c0-15.015,12.458-27.23,27.771-27.23c7.683,0,15.085,3.149,20.312,8.64
				c1.464,1.54,3.483,2.381,5.582,2.328c-0.833,1.72-1.005,3.745-0.361,5.662c0.755,2.246,2.491,3.934,4.612,4.683
				c-1.569,1.488-2.434,3.597-2.331,5.791C227.492,129.114,227.518,130.432,227.518,132.05z"/>
		</g>
	</g>
</g>
<g>
</g>
<g>
</g>
<g>
</g>
<g>
</g>
<g>
</g>
<g>
</g>
<g>
</g>
<g>
</g>
<g>
</g>
<g>
</g>
<g>
</g>
<g>
</g>
<g>
</g>
<g>
</g>
<g>
</g>
</svg>
